<svg width="2567" height="1805" xmlns="http://www.w3.org/2000/svg" xmlns:xlink="http://www.w3.org/1999/xlink" overflow="hidden"><defs><clipPath id="clip0"><rect x="751" y="275" width="2567" height="1805"/></clipPath></defs><g clip-path="url(#clip0)" transform="translate(-751 -275)"><path d="M758.5 319.334C758.5 298.439 775.439 281.5 796.334 281.5L1728.67 281.5C1749.56 281.5 1766.5 298.439 1766.5 319.334L1766.5 470.666C1766.5 491.561 1749.56 508.5 1728.67 508.5L796.334 508.5C775.439 508.5 758.5 491.561 758.5 470.666Z" stroke="#2F528F" stroke-width="4.58333" stroke-linecap="butt" stroke-linejoin="miter" stroke-miterlimit="8" stroke-opacity="1" fill="#DAE3F3" fill-rule="evenodd" fill-opacity="1"/><text fill="#000000" fill-opacity="1" font-family="Calibri,Calibri_MSFontService,sans-serif" font-style="normal" font-variant="normal" font-weight="400" font-stretch="normal" font-size="83" text-anchor="start" direction="ltr" writing-mode="lr-tb" unicode-bidi="normal" text-decoration="none" transform="matrix(1 0 0 1 815.965 422)">Sequencing quality control</text><path d="M758.5 679.668C758.5 630.422 798.422 590.5 847.668 590.5L1677.33 590.5C1726.58 590.5 1766.5 630.422 1766.5 679.668L1766.5 1036.33C1766.5 1085.58 1726.58 1125.5 1677.33 1125.5L847.668 1125.5C798.422 1125.5 758.5 1085.58 758.5 1036.33Z" stroke="#2F528F" stroke-width="4.58333" stroke-linecap="butt" stroke-linejoin="miter" stroke-miterlimit="8" stroke-opacity="1" fill="#DAE3F3" fill-rule="evenodd" fill-opacity="1"/><text fill="#000000" fill-opacity="1" font-family="Calibri,Calibri_MSFontService,sans-serif" font-style="normal" font-variant="normal" font-weight="400" font-stretch="normal" font-size="83" text-anchor="start" direction="ltr" writing-mode="lr-tb" unicode-bidi="normal" text-decoration="none" transform="matrix(1 0 0 1 989.845 786)">Read alignment,<tspan fill="#000000" fill-opacity="1" font-family="Calibri,Calibri_MSFontService,sans-serif" font-style="normal" font-variant="normal" font-weight="400" font-stretch="normal" font-size="83" text-anchor="start" direction="ltr" writing-mode="lr-tb" unicode-bidi="normal" text-decoration="none" x="-22.8021" y="99">Feature counting,</tspan><tspan fill="#000000" fill-opacity="1" font-family="Calibri,Calibri_MSFontService,sans-serif" font-style="normal" font-variant="normal" font-weight="400" font-stretch="normal" font-size="83" text-anchor="start" direction="ltr" writing-mode="lr-tb" unicode-bidi="normal" text-decoration="none" x="94.6229" y="198">Cell calling</tspan></text><path d="M1.14583-5.05797e-06 1.14609 58.8399-1.14557 58.8399-1.14583 5.05797e-06ZM13.7502 54.2565 0.000360892 81.7566-13.7498 54.2566Z" fill="#4472C4" fill-rule="nonzero" fill-opacity="1" transform="matrix(-1 0 0 1 1262 508)"/><path d="M1.14583-5.05795e-06 1.14609 58.8403-1.14557 58.8403-1.14583 5.05795e-06ZM13.7502 54.2569 0.000360892 81.7569-13.7498 54.257Z" fill="#4472C4" fill-rule="nonzero" fill-opacity="1" transform="matrix(-1 0 0 1 1262 1127)"/><path d="M758.5 1236.5C758.5 1215.51 775.514 1198.5 796.501 1198.5L1728.5 1198.5C1749.49 1198.5 1766.5 1215.51 1766.5 1236.5L1766.5 1388.5C1766.5 1409.49 1749.49 1426.5 1728.5 1426.5L796.501 1426.5C775.514 1426.5 758.5 1409.49 758.5 1388.5Z" stroke="#2F528F" stroke-width="4.58333" stroke-linecap="butt" stroke-linejoin="miter" stroke-miterlimit="8" stroke-opacity="1" fill="#DAE3F3" fill-rule="evenodd" fill-opacity="1"/><text fill="#000000" fill-opacity="1" font-family="Calibri,Calibri_MSFontService,sans-serif" font-style="normal" font-variant="normal" font-weight="400" font-stretch="normal" font-size="83" text-anchor="start" direction="ltr" writing-mode="lr-tb" unicode-bidi="normal" text-decoration="none" transform="matrix(1 0 0 1 1013.05 1339)">Quality control</text><path d="M1.14583-5.05795e-06 1.14609 58.8403-1.14557 58.8403-1.14583 5.05795e-06ZM13.7502 54.2569 0.000360892 81.7569-13.7498 54.257Z" fill="#4472C4" fill-rule="nonzero" fill-opacity="1" transform="matrix(-1 0 0 1 1262 1425)"/><path d="M2307.5 937.501C2307.5 916.514 2324.51 899.5 2345.5 899.5L3277.5 899.5C3298.49 899.5 3315.5 916.514 3315.5 937.501L3315.5 1089.5C3315.5 1110.49 3298.49 1127.5 3277.5 1127.5L2345.5 1127.5C2324.51 1127.5 2307.5 1110.49 2307.5 1089.5Z" stroke="#2F528F" stroke-width="4.58333" stroke-linecap="butt" stroke-linejoin="miter" stroke-miterlimit="8" stroke-opacity="1" fill="#DAE3F3" fill-rule="evenodd" fill-opacity="1"/><text fill="#000000" fill-opacity="1" font-family="Calibri,Calibri_MSFontService,sans-serif" font-style="normal" font-variant="normal" font-weight="400" font-stretch="normal" font-size="83" text-anchor="start" direction="ltr" writing-mode="lr-tb" unicode-bidi="normal" text-decoration="none" transform="matrix(1 0 0 1 2643.13 1041)">Clustering</text><path d="M1.14583-5.05795e-06 1.14609 58.8403-1.14557 58.8403-1.14583 5.05795e-06ZM13.7502 54.2569 0.000360892 81.7569-13.7498 54.257Z" fill="#4472C4" fill-rule="nonzero" fill-opacity="1" transform="matrix(-1 0 0 1 2806 1129)"/><path d="M2307.5 628.501C2307.5 607.514 2324.51 590.5 2345.5 590.5L3277.5 590.5C3298.49 590.5 3315.5 607.514 3315.5 628.501L3315.5 780.499C3315.5 801.486 3298.49 818.5 3277.5 818.5L2345.5 818.5C2324.51 818.5 2307.5 801.486 2307.5 780.499Z" stroke="#2F528F" stroke-width="4.58333" stroke-linecap="butt" stroke-linejoin="miter" stroke-miterlimit="8" stroke-opacity="1" fill="#DAE3F3" fill-rule="evenodd" fill-opacity="1"/><text fill="#000000" fill-opacity="1" font-family="Calibri,Calibri_MSFontService,sans-serif" font-style="normal" font-variant="normal" font-weight="400" font-stretch="normal" font-size="83" text-anchor="start" direction="ltr" writing-mode="lr-tb" unicode-bidi="normal" text-decoration="none" transform="matrix(1 0 0 1 2480.09 731)">Data set integration</text><path d="M1.14583-5.05795e-06 1.14609 58.8403-1.14557 58.8403-1.14583 5.05795e-06ZM13.7502 54.2569 0.000360892 81.7569-13.7498 54.257Z" fill="#4472C4" fill-rule="nonzero" fill-opacity="1" transform="matrix(-1 0 0 1 2801 818)"/><path d="M2307.5 316.501C2307.5 295.513 2324.51 278.5 2345.5 278.5L3254.5 278.5C3275.49 278.5 3292.5 295.513 3292.5 316.501L3292.5 468.499C3292.5 489.486 3275.49 506.5 3254.5 506.5L2345.5 506.5C2324.51 506.5 2307.5 489.486 2307.5 468.499Z" stroke="#2F528F" stroke-width="4.58333" stroke-linecap="butt" stroke-linejoin="miter" stroke-miterlimit="8" stroke-opacity="1" fill="#DAE3F3" fill-rule="evenodd" fill-opacity="1"/><text fill="#000000" fill-opacity="1" font-family="Calibri,Calibri_MSFontService,sans-serif" font-style="normal" font-variant="normal" font-weight="400" font-stretch="normal" font-size="83" text-anchor="start" direction="ltr" writing-mode="lr-tb" unicode-bidi="normal" text-decoration="none" transform="matrix(1 0 0 1 2377.44 420)">Dimensionality reduction</text><path d="M758.5 1854.5C758.5 1833.51 775.514 1816.5 796.501 1816.5L1709.5 1816.5C1730.49 1816.5 1747.5 1833.51 1747.5 1854.5L1747.5 2006.5C1747.5 2027.49 1730.49 2044.5 1709.5 2044.5L796.501 2044.5C775.514 2044.5 758.5 2027.49 758.5 2006.5Z" stroke="#2F528F" stroke-width="4.58333" stroke-linecap="butt" stroke-linejoin="miter" stroke-miterlimit="8" stroke-opacity="1" fill="#DAE3F3" fill-rule="evenodd" fill-opacity="1"/><text fill="#000000" fill-opacity="1" font-family="Calibri,Calibri_MSFontService,sans-serif" font-style="normal" font-variant="normal" font-weight="400" font-stretch="normal" font-size="83" text-anchor="start" direction="ltr" writing-mode="lr-tb" unicode-bidi="normal" text-decoration="none" transform="matrix(1 0 0 1 963.705 1958)">Feature selection</text><path d="M1.14583-5.05795e-06 1.14609 58.8403-1.14557 58.8403-1.14583 5.05795e-06ZM13.7502 54.2569 0.000360892 81.7569-13.7498 54.257Z" fill="#4472C4" fill-rule="nonzero" fill-opacity="1" transform="matrix(-1 0 0 1 2799 508)"/><path d="M758.5 1545.5C758.5 1524.51 775.514 1507.5 796.501 1507.5L1728.5 1507.5C1749.49 1507.5 1766.5 1524.51 1766.5 1545.5L1766.5 1697.5C1766.5 1718.49 1749.49 1735.5 1728.5 1735.5L796.501 1735.5C775.514 1735.5 758.5 1718.49 758.5 1697.5Z" stroke="#2F528F" stroke-width="4.58333" stroke-linecap="butt" stroke-linejoin="miter" stroke-miterlimit="8" stroke-opacity="1" fill="#DAE3F3" fill-rule="evenodd" fill-opacity="1"/><text fill="#000000" fill-opacity="1" font-family="Calibri,Calibri_MSFontService,sans-serif" font-style="normal" font-variant="normal" font-weight="400" font-stretch="normal" font-size="83" text-anchor="start" direction="ltr" writing-mode="lr-tb" unicode-bidi="normal" text-decoration="none" transform="matrix(1 0 0 1 920.178 1649)">Count <tspan fill="#000000" fill-opacity="1" font-family="Calibri,Calibri_MSFontService,sans-serif" font-style="normal" font-variant="normal" font-weight="400" font-stretch="normal" font-size="83" text-anchor="start" direction="ltr" writing-mode="lr-tb" unicode-bidi="normal" text-decoration="none" x="220.39" y="0">normalisation</tspan></text><path d="M1.14583-5.05795e-06 1.14609 58.8403-1.14557 58.8403-1.14583 5.05795e-06ZM13.7502 54.2569 0.000360892 81.7569-13.7498 54.257Z" fill="#4472C4" fill-rule="nonzero" fill-opacity="1" transform="matrix(-1 0 0 1 1260 1737)"/><path d="M0-1.14583 281.349-1.14583 281.349 1538.15 280.204 1537.01 537.49 1537.01 537.49 1539.3 279.058 1539.3 279.058 0 280.204 1.14583 0 1.14583ZM532.907 1524.4 560.407 1538.15 532.907 1551.9Z" fill="#4472C4" fill-rule="nonzero" fill-opacity="1" transform="matrix(1 0 0 -1 1747 1930.15)"/><path d="M2307.5 1247.33C2307.5 1226.44 2324.44 1209.5 2345.33 1209.5L3277.67 1209.5C3298.56 1209.5 3315.5 1226.44 3315.5 1247.33L3315.5 1398.67C3315.5 1419.56 3298.56 1436.5 3277.67 1436.5L2345.33 1436.5C2324.44 1436.5 2307.5 1419.56 2307.5 1398.67Z" stroke="#2F528F" stroke-width="4.58333" stroke-linecap="butt" stroke-linejoin="miter" stroke-miterlimit="8" stroke-opacity="1" fill="#DAE3F3" fill-rule="evenodd" fill-opacity="1"/><text fill="#000000" fill-opacity="1" font-family="Calibri,Calibri_MSFontService,sans-serif" font-style="normal" font-variant="normal" font-weight="400" font-stretch="normal" font-size="83" text-anchor="start" direction="ltr" writing-mode="lr-tb" unicode-bidi="normal" text-decoration="none" transform="matrix(1 0 0 1 2457.46 1350)">Cluster marker genes</text><path d="M2307.5 1545.33C2307.5 1524.44 2324.44 1507.5 2345.33 1507.5L3277.67 1507.5C3298.56 1507.5 3315.5 1524.44 3315.5 1545.33L3315.5 1696.67C3315.5 1717.56 3298.56 1734.5 3277.67 1734.5L2345.33 1734.5C2324.44 1734.5 2307.5 1717.56 2307.5 1696.67Z" stroke="#2F528F" stroke-width="4.58333" stroke-linecap="butt" stroke-linejoin="miter" stroke-miterlimit="8" stroke-opacity="1" fill="#DAE3F3" fill-rule="evenodd" fill-opacity="1"/><text fill="#000000" fill-opacity="1" font-family="Calibri,Calibri_MSFontService,sans-serif" font-style="normal" font-variant="normal" font-weight="400" font-stretch="normal" font-size="83" text-anchor="start" direction="ltr" writing-mode="lr-tb" unicode-bidi="normal" text-decoration="none" transform="matrix(1 0 0 1 2434.89 1598)">Differential expression <tspan fill="#000000" fill-opacity="1" font-family="Calibri,Calibri_MSFontService,sans-serif" font-style="normal" font-variant="normal" font-weight="400" font-stretch="normal" font-size="83" text-anchor="start" direction="ltr" writing-mode="lr-tb" unicode-bidi="normal" text-decoration="none" x="43.8167" y="99">between conditions </tspan></text><path d="M1.14583-5.05795e-06 1.14609 58.8403-1.14557 58.8403-1.14583 5.05795e-06ZM13.7502 54.2569 0.000360892 81.7569-13.7498 54.257Z" fill="#4472C4" fill-rule="nonzero" fill-opacity="1" transform="matrix(-1 0 0 1 2808 1429)"/><path d="M2307.5 1854.33C2307.5 1833.44 2324.44 1816.5 2345.33 1816.5L3277.67 1816.5C3298.56 1816.5 3315.5 1833.44 3315.5 1854.33L3315.5 2005.67C3315.5 2026.56 3298.56 2043.5 3277.67 2043.5L2345.33 2043.5C2324.44 2043.5 2307.5 2026.56 2307.5 2005.67Z" stroke="#2F528F" stroke-width="4.58333" stroke-linecap="butt" stroke-linejoin="miter" stroke-miterlimit="8" stroke-opacity="1" fill="#DAE3F3" fill-rule="evenodd" fill-opacity="1"/><text fill="#000000" fill-opacity="1" font-family="Calibri,Calibri_MSFontService,sans-serif" font-style="normal" font-variant="normal" font-weight="400" font-stretch="normal" font-size="83" text-anchor="start" direction="ltr" writing-mode="lr-tb" unicode-bidi="normal" text-decoration="none" transform="matrix(1 0 0 1 2427.43 1907)">Differential abundance <tspan fill="#000000" fill-opacity="1" font-family="Calibri,Calibri_MSFontService,sans-serif" font-style="normal" font-variant="normal" font-weight="400" font-stretch="normal" font-size="83" text-anchor="start" direction="ltr" writing-mode="lr-tb" unicode-bidi="normal" text-decoration="none" x="51.2874" y="99">between conditions </tspan></text><path d="M1.14583-5.05795e-06 1.14609 58.8403-1.14557 58.8403-1.14583 5.05795e-06ZM13.7502 54.2569 0.000360892 81.7569-13.7498 54.257Z" fill="#4472C4" fill-rule="nonzero" fill-opacity="1" transform="matrix(-1 0 0 1 2808 1738)"/></g></svg>